<?xml version="1.0" standalone="no"?>
<!DOCTYPE svg PUBLIC "-//W3C//DTD SVG 20010904//EN"
 "http://www.w3.org/TR/2001/REC-SVG-20010904/DTD/svg10.dtd">
<svg version="1.0" xmlns="http://www.w3.org/2000/svg"
 width="1734.000000pt" height="1734.000000pt" viewBox="0 0 1734.000000 1734.000000"
 preserveAspectRatio="xMidYMid meet">
<metadata>
Created by potrace 1.14, written by Peter Selinger 2001-2017
</metadata>
<g transform="translate(0.000000,1734.000000) scale(0.100000,-0.100000)"
fill="#000000" stroke="none">
<path d="M8278 15565 c-2 -2 -50 -6 -108 -9 -58 -4 -121 -9 -140 -11 -19 -2
-64 -7 -100 -10 -36 -4 -77 -8 -93 -10 -15 -2 -55 -6 -90 -10 -34 -4 -71 -9
-82 -11 -10 -2 -37 -6 -60 -9 -22 -3 -62 -10 -90 -15 -27 -5 -68 -12 -90 -15
-75 -12 -100 -17 -195 -37 -52 -11 -114 -24 -136 -28 -23 -5 -79 -19 -125 -30
-46 -12 -91 -23 -99 -25 -39 -9 -238 -68 -350 -103 -485 -155 -961 -369 -1410
-635 -196 -116 -535 -344 -640 -430 -8 -7 -33 -26 -55 -42 -36 -27 -304 -245
-331 -270 -308 -279 -535 -511 -729 -745 -48 -58 -101 -121 -118 -140 -105
-124 -351 -472 -485 -687 -200 -319 -422 -763 -549 -1093 -24 -63 -48 -124
-53 -135 -36 -78 -203 -619 -224 -725 -2 -14 -14 -65 -26 -115 -12 -49 -23
-97 -25 -106 -2 -9 -15 -74 -29 -145 -28 -141 -29 -152 -46 -269 -6 -44 -13
-91 -15 -105 -4 -26 -12 -85 -20 -155 -2 -22 -7 -76 -11 -120 -3 -44 -8 -82
-9 -85 -6 -10 -19 -319 -19 -475 l-1 -159 560 -1 c308 0 568 1 577 3 15 4 17
21 18 135 1 165 13 385 25 482 2 17 7 57 10 90 4 33 8 74 11 90 2 17 6 46 8
65 7 56 34 218 52 305 8 44 17 91 20 105 2 14 16 72 30 130 217 884 611 1659
1200 2365 120 143 461 491 594 605 47 41 87 76 90 79 3 3 39 33 80 66 41 33
80 63 85 67 16 13 119 91 146 111 119 86 165 118 262 181 234 153 543 321 822
446 183 82 583 226 735 265 8 2 78 20 155 40 77 20 149 38 160 41 224 46 344
67 449 79 28 4 52 8 55 10 3 1 38 6 78 10 40 4 85 8 100 10 15 2 71 6 123 10
52 4 118 9 145 11 65 6 542 6 620 0 33 -3 98 -8 145 -11 100 -7 148 -12 255
-26 129 -16 179 -24 280 -43 11 -2 42 -7 69 -10 27 -4 53 -9 56 -11 4 -2 22
-7 41 -10 19 -3 54 -11 79 -16 25 -6 53 -12 62 -14 59 -12 236 -58 253 -66 11
-5 31 -10 45 -13 69 -11 501 -165 637 -227 23 -10 44 -19 47 -19 18 0 434
-206 497 -245 21 -14 41 -25 44 -25 3 0 31 -16 61 -35 30 -19 57 -35 59 -35 5
0 101 -60 232 -147 139 -91 472 -340 513 -383 3 -3 34 -30 69 -60 171 -146
424 -398 573 -571 25 -30 55 -65 67 -78 147 -169 438 -578 546 -768 6 -10 25
-43 42 -74 l33 -56 642 1 c566 1 643 3 640 16 -7 32 -213 442 -291 579 -167
291 -396 634 -573 856 -73 92 -252 303 -321 380 -98 108 -377 389 -468 470
-31 28 -73 66 -95 85 -296 267 -739 585 -1139 815 -553 320 -1295 608 -1890
736 -33 7 -62 13 -65 14 -52 12 -69 16 -90 20 -44 8 -204 36 -265 46 -33 5
-71 12 -85 14 -14 3 -50 7 -80 10 -30 3 -62 8 -70 10 -18 5 -188 22 -298 31
-42 3 -95 8 -117 11 -43 5 -792 13 -797 8z"/>
<path d="M5795 12083 c-59 -148 -154 -380 -210 -518 -56 -137 -150 -369 -209
-515 -59 -146 -111 -274 -116 -285 -5 -11 -64 -155 -131 -320 -66 -165 -127
-313 -134 -330 -7 -16 -42 -102 -78 -190 -204 -507 -361 -894 -372 -920 -7
-16 -23 -55 -35 -85 -12 -30 -27 -68 -35 -85 -36 -83 -85 -208 -85 -218 0 -9
183 -12 718 -12 l717 0 13 30 c7 17 105 255 217 530 112 275 223 550 248 610
25 61 84 207 131 325 48 118 91 224 96 235 4 11 20 46 34 79 14 32 26 63 26
68 0 6 7 26 16 45 l17 34 12 -28 c30 -68 48 -112 145 -353 56 -140 108 -268
115 -285 7 -16 40 -97 73 -180 164 -410 435 -1083 447 -1110 7 -16 23 -57 35
-90 13 -33 27 -64 32 -70 4 -5 8 -15 8 -23 0 -7 9 -32 19 -55 11 -23 38 -89
61 -147 23 -58 47 -118 55 -135 28 -65 90 -220 92 -229 1 -6 16 -45 33 -86 35
-82 332 -818 360 -890 25 -64 289 -719 305 -755 7 -16 45 -111 84 -210 40 -99
76 -189 80 -200 26 -59 46 -109 127 -311 l89 -222 722 0 722 -1 -15 42 c-8 23
-21 56 -28 72 -8 17 -98 239 -201 495 -102 256 -192 479 -200 495 -7 17 -77
190 -155 385 -78 195 -148 369 -155 385 -7 17 -38 93 -68 170 -31 77 -97 241
-147 365 -86 212 -240 593 -555 1375 -75 187 -201 500 -280 695 -79 195 -252
625 -385 955 -133 330 -264 656 -292 725 -27 69 -54 134 -59 145 -5 11 -85
209 -178 440 l-169 420 -724 3 -724 2 -109 -267z"/>
<path d="M7909 12303 c10 -27 71 -178 136 -338 65 -159 126 -310 135 -335 10
-25 52 -130 95 -235 43 -104 85 -210 95 -235 9 -25 69 -173 133 -330 63 -157
156 -388 207 -515 51 -126 98 -243 105 -260 7 -16 27 -66 44 -110 18 -44 36
-89 41 -100 5 -11 28 -67 50 -125 23 -58 47 -118 54 -135 8 -16 78 -190 156
-385 78 -195 151 -374 161 -397 11 -23 19 -48 19 -55 0 -8 4 -18 9 -23 5 -6
27 -57 49 -115 23 -58 64 -161 93 -230 28 -69 105 -260 171 -425 66 -165 126
-313 133 -330 7 -16 31 -75 53 -130 91 -229 124 -311 132 -330 5 -11 23 -56
41 -100 17 -44 37 -94 44 -110 13 -28 74 -180 115 -285 9 -25 60 -151 113
-280 52 -129 170 -422 262 -650 92 -228 180 -447 197 -486 l29 -72 723 0 724
0 50 126 c28 70 91 226 140 347 49 121 147 362 217 535 70 173 133 329 140
345 7 17 37 89 65 160 29 72 61 149 71 172 10 23 19 46 19 51 0 8 14 41 60
147 5 11 68 166 140 345 72 179 135 334 140 345 5 11 37 90 71 175 34 85 67
169 74 185 7 17 27 66 45 110 18 44 38 94 45 110 7 17 22 55 34 85 29 73 36
90 49 120 6 14 54 131 106 260 52 129 142 354 202 500 59 146 149 368 200 495
51 126 96 231 101 232 5 2 14 -25 21 -59 38 -186 81 -420 87 -468 3 -30 8 -66
10 -80 9 -50 14 -86 21 -160 19 -203 27 -388 27 -590 1 -168 -10 -443 -18
-485 -2 -11 -7 -54 -10 -95 -3 -41 -10 -104 -15 -140 -5 -36 -12 -85 -15 -110
-3 -25 -10 -70 -15 -100 -5 -30 -12 -71 -15 -90 -13 -78 -59 -282 -87 -390
-16 -63 -31 -124 -34 -135 -2 -11 -31 -105 -64 -210 -305 -952 -869 -1825
-1611 -2495 -276 -249 -466 -394 -819 -622 -136 -88 -637 -358 -664 -358 -3 0
-36 -14 -73 -31 -86 -40 -371 -151 -443 -173 -30 -10 -64 -21 -75 -26 -64 -30
-589 -165 -710 -183 -16 -3 -57 -10 -90 -16 -84 -15 -104 -18 -235 -35 -168
-22 -196 -25 -295 -31 -49 -3 -115 -8 -145 -10 -65 -5 -567 -6 -625 -1 -22 2
-85 7 -140 10 -55 4 -107 9 -115 11 -8 3 -51 7 -95 10 -43 4 -82 8 -85 10 -3
2 -30 6 -60 10 -71 8 -104 13 -165 25 -27 5 -66 12 -85 15 -56 10 -248 52
-340 75 -801 203 -1534 569 -2185 1089 -66 53 -129 105 -141 116 -46 43 -128
110 -137 110 -5 0 -33 -61 -63 -135 -30 -74 -58 -144 -63 -155 -5 -11 -48
-114 -94 -230 -47 -115 -120 -295 -162 -398 -42 -104 -75 -193 -73 -197 2 -5
41 -39 88 -75 47 -36 92 -72 100 -78 8 -7 69 -51 135 -97 403 -286 778 -498
1245 -707 223 -99 597 -235 840 -303 220 -63 588 -147 715 -165 22 -3 49 -8
61 -10 12 -3 39 -7 60 -10 21 -4 50 -8 64 -11 14 -2 63 -9 110 -14 47 -6 99
-13 116 -15 51 -6 155 -16 208 -20 28 -2 94 -8 146 -12 199 -16 833 -8 1010
12 19 2 70 7 113 10 43 4 88 8 100 11 12 2 47 6 77 9 30 3 66 8 80 10 14 2 84
13 155 24 72 11 141 23 155 26 14 3 36 7 50 10 87 16 232 48 340 75 69 17 132
33 141 35 169 36 753 241 955 335 36 16 67 30 70 30 4 0 283 132 314 149 8 4
71 38 140 76 1001 542 1874 1341 2492 2280 94 143 170 268 269 443 102 178
275 536 350 727 22 55 44 109 49 120 66 140 266 785 296 955 3 14 12 54 20 90
8 36 17 81 20 100 3 19 10 55 16 80 11 49 11 51 28 160 7 41 14 84 16 95 2 11
6 40 9 65 3 25 7 59 10 75 3 17 7 55 10 85 3 30 7 66 9 80 2 14 7 63 11 110 3
47 8 108 11 135 13 149 18 591 9 765 -8 169 -16 297 -20 325 -2 17 -7 60 -10
97 -3 37 -8 77 -10 90 -2 13 -9 66 -15 118 -7 52 -13 102 -15 110 -1 8 -6 35
-10 60 -3 25 -16 95 -27 155 -11 61 -22 121 -25 135 -19 108 -107 460 -142
570 -11 36 -21 66 -21 68 0 1 477 2 1060 2 l1060 0 -2 193 -3 192 -2084 1
c-1874 0 -2084 -2 -2088 -15 -3 -9 -9 -25 -14 -36 -4 -11 -54 -132 -109 -270
-55 -137 -105 -259 -110 -270 -5 -11 -70 -171 -144 -355 -160 -398 -164 -409
-176 -435 -9 -21 -61 -150 -90 -225 -9 -25 -43 -108 -75 -185 -75 -183 -192
-472 -267 -660 -32 -82 -63 -159 -68 -170 -12 -26 -128 -312 -142 -350 -6 -16
-15 -34 -20 -39 -4 -6 -8 -16 -8 -23 0 -7 -9 -32 -19 -56 -11 -23 -81 -195
-156 -382 -75 -187 -143 -353 -150 -370 -7 -16 -34 -83 -60 -148 -26 -65 -49
-117 -50 -115 -3 3 -379 936 -467 1158 -27 69 -56 139 -63 155 -7 17 -50 122
-95 235 -45 113 -88 219 -95 235 -8 17 -50 122 -95 235 -44 113 -85 214 -90
225 -5 11 -38 92 -74 180 -158 394 -538 1338 -721 1790 -65 160 -125 309 -134
332 -9 23 -88 220 -176 437 l-159 396 -723 0 -723 0 19 -47z"/>
<path d="M78 8222 l-78 -3 0 -192 0 -192 3670 0 c2019 0 3670 3 3670 7 0 7
-19 55 -104 268 l-46 115 -3517 0 c-1935 0 -3553 -1 -3595 -3z"/>
<path d="M1834 7428 c3 -13 17 -81 31 -153 23 -118 93 -406 115 -480 163 -531
277 -822 480 -1225 31 -63 67 -132 78 -152 12 -21 38 -68 58 -105 101 -185
346 -568 446 -698 5 -5 48 -62 96 -125 48 -63 95 -124 104 -135 9 -11 58 -69
108 -130 148 -177 475 -523 486 -513 2 2 22 49 44 103 22 55 45 110 50 123 6
12 14 32 20 45 5 12 59 146 120 297 61 151 114 284 119 295 5 11 32 76 60 145
94 234 192 475 200 495 5 11 23 56 41 100 18 44 41 99 51 122 11 24 19 47 19
51 0 5 6 22 14 38 8 16 49 115 91 219 43 105 102 251 132 325 30 74 88 216
128 315 40 99 110 270 155 380 44 110 117 290 161 400 44 110 87 214 95 232 8
17 14 36 14 42 0 8 -203 11 -719 11 l-718 0 -36 -87 c-20 -49 -66 -162 -102
-253 -37 -91 -75 -183 -84 -205 -10 -22 -74 -178 -142 -347 -68 -170 -126
-308 -129 -308 -10 0 -96 196 -155 350 -20 52 -40 104 -45 115 -14 32 -108
324 -126 390 -9 33 -32 124 -51 203 l-35 142 -589 0 -589 0 4 -22z"/>
</g>
</svg>
