<svg xmlns="http://www.w3.org/2000/svg" width="18" height="18"><path fill-rule="evenodd" fill="#3D7" d="M9.01.009a9 9 0 1 0 0 18.002 9 9 0 0 0 0-18.002zm1.873 13.95c-.463.182-.832.321-1.109.417a2.918 2.918 0 0 1-.961.144c-.561 0-.997-.138-1.308-.41a1.327 1.327 0 0 1-.466-1.042c0-.164.012-.332.034-.502.024-.171.061-.363.112-.579l.58-2.047c.051-.198.096-.385.131-.559.035-.175.051-.336.051-.482 0-.26-.054-.444-.161-.546-.109-.103-.314-.153-.62-.153a1.61 1.61 0 0 0-.461.068 6.322 6.322 0 0 0-.403.134l.153-.631c.38-.154.743-.287 1.09-.397.347-.111.674-.166.983-.166.557 0 .987.136 1.29.404.3.269.452.619.452 1.048 0 .09-.01.247-.031.471a3.23 3.23 0 0 1-.116.618l-.577 2.042a5.854 5.854 0 0 0-.127.56c-.038.21-.056.37-.056.479 0 .27.06.455.182.554.121.098.332.148.63.148.141 0 .299-.025.478-.075.177-.048.305-.092.385-.129l-.155.631zm-.102-8.289a1.379 1.379 0 0 1-.972.374c-.377 0-.703-.125-.975-.374a1.2 1.2 0 0 1-.406-.909c0-.355.137-.659.406-.912.272-.253.598-.378.975-.378.379 0 .704.125.972.378.269.253.404.557.404.912 0 .356-.135.659-.404.909z"/></svg>