<svg width="11" height="94" viewBox="0 0 11 94" fill="none" xmlns="http://www.w3.org/2000/svg">
<circle cx="1.5" cy="13.5" r="1.5" fill="#5D9DFD"/>
<circle cx="9.5" cy="1.5" r="1.5" fill="#5D9DFD"/>
<circle cx="1.5" cy="49.5" r="1.5" fill="#5D9DFD"/>
<circle cx="9.5" cy="37.5" r="1.5" fill="#5D9DFD"/>
<circle cx="1.5" cy="19.5" r="1.5" fill="#5D9DFD"/>
<circle cx="9.5" cy="7.5" r="1.5" fill="#5D9DFD"/>
<circle cx="1.5" cy="55.5" r="1.5" fill="#5D9DFD"/>
<circle cx="9.5" cy="43.5" r="1.5" fill="#5D9DFD"/>
<circle cx="1.5" cy="25.5" r="1.5" fill="#5D9DFD"/>
<circle cx="9.5" cy="13.5" r="1.5" fill="#5D9DFD"/>
<circle cx="1.5" cy="61.5" r="1.5" fill="#5D9DFD"/>
<circle cx="9.5" cy="49.5" r="1.5" fill="#5D9DFD"/>
<circle cx="1.5" cy="31.5" r="1.5" fill="#5D9DFD"/>
<circle cx="9.5" cy="19.5" r="1.5" fill="#5D9DFD"/>
<circle cx="1.5" cy="67.5" r="1.5" fill="#5D9DFD"/>
<circle cx="9.5" cy="55.5" r="1.5" fill="#5D9DFD"/>
<circle cx="1.5" cy="37.5" r="1.5" fill="#5D9DFD"/>
<circle cx="9.5" cy="25.5" r="1.5" fill="#5D9DFD"/>
<circle cx="1.5" cy="74.5" r="1.5" fill="#92BDFF"/>
<circle cx="9.5" cy="61.5" r="1.5" fill="#5D9DFD"/>
<circle cx="1.5" cy="86.5" r="1.5" fill="#92BDFF"/>
<circle cx="9.5" cy="74.5" r="1.5" fill="#92BDFF"/>
<circle cx="1.5" cy="43.5" r="1.5" fill="#5D9DFD"/>
<circle cx="9.5" cy="31.5" r="1.5" fill="#5D9DFD"/>
<circle cx="1.5" cy="80.5" r="1.5" fill="#92BDFF"/>
<circle cx="9.5" cy="67.5" r="1.5" fill="#5D9DFD"/>
<circle cx="1.5" cy="92.5" r="1.5" fill="#92BDFF"/>
<circle cx="9.5" cy="80.5" r="1.5" fill="#92BDFF"/>
</svg>
